Coordinates
version=1
nRows=12
nColumns=33
inDegrees=yes

Units are S.I. units (second, meters, Newtons, ...)
Angles are in degrees.

endheader
time	ground_thorax_rot_x	ground_thorax_rot_y	ground_thorax_rot_z	ground_thorax_tx	ground_thorax_ty	ground_thorax_tz	clav_prot_r	clav_elev_r	scapula_abduction_r	scapula_elevation_r	scapula_upward_rot_r	scapula_winging_r	shoulder_elv_r	plane_of_elev_r	axial_rot_r	elbow_flexion_r	pro_sup_r	wrist_flex_r	wrist_dev_r	clav_prot_l	clav_elev_l	scapula_abduction_l	scapula_elevation_l	scapula_upward_rot_l	scapula_winging_l	shoulder_elv_l	plane_of_elev_l	axial_rot_l	elbow_flexion_l	pro_sup_l	wrist_flex_l	wrist_dev_l	
5.3600	2.079921	2.933023	12.423858	-0.118379	1.037649	0.028175	4.273651	11.401576	17.442655	7.394404	22.354157	-10.232911	13.571175	-74.204445	58.758066	54.667511	-24.943499	69.999997	-25.000000	12.882928	-5.045301	-20.182783	-21.329655	-44.999660	0.881620	60.072680	-39.707192	-4.451875	66.859978	24.935148	-0.285114	-25.000000	
5.3700	1.979430	3.054207	12.526459	-0.118673	1.037370	0.028092	4.162691	11.204819	17.246361	7.251338	22.290369	-10.158418	13.538597	-74.156897	58.676210	54.542601	-24.863243	69.999995	-25.000000	12.876507	-5.059749	-20.168025	-21.311885	-44.989341	0.878199	60.168492	-39.608164	-4.428397	66.738200	24.970758	-0.582846	-25.000000	
5.3800	1.845351	3.214652	12.622219	-0.118913	1.037153	0.028041	4.007775	10.960404	16.953005	7.080775	22.191724	-10.047510	13.515067	-74.093418	58.543933	54.424385	-24.754877	69.999992	-25.000000	12.883295	-5.058465	-20.178431	-21.310520	-44.984261	0.884260	60.317452	-39.483838	-4.434887	66.599101	25.036100	-1.029057	-25.000000	
5.3900	1.712875	3.388080	12.699304	-0.119120	1.036858	0.028014	3.849493	10.750002	16.640012	6.939880	22.091744	-9.931839	13.530244	-74.010985	58.378285	54.401217	-24.653504	69.999985	-25.000000	12.908551	-5.045063	-20.221043	-21.319179	-44.978797	0.904578	60.496174	-39.342090	-4.478273	66.516746	25.118341	-1.519638	-24.999999	
5.4000	1.575337	3.572628	12.760497	-0.119278	1.036546	0.028013	3.680466	10.552990	16.298424	6.811983	21.988178	-9.807459	13.578641	-73.913577	58.180827	54.442362	-24.553918	69.999972	-25.000000	12.949526	-5.022678	-20.291815	-21.336138	-44.975213	0.937200	60.701453	-39.187242	-4.545491	66.462086	25.213266	-2.061008	-24.999999	
5.4100	1.460931	3.746917	12.796621	-0.119377	1.036215	0.028029	3.526475	10.397570	15.983445	6.714084	21.899477	-9.694779	13.669276	-73.813185	57.974674	54.560929	-24.481282	69.999950	-25.000000	12.997137	-5.013148	-20.374743	-21.341505	-44.973791	0.976446	60.900810	-39.028060	-4.593099	66.436408	25.293920	-2.553623	-24.999998	
5.4200	1.364091	3.908666	12.811453	-0.119413	1.035896	0.028061	3.384803	10.272540	15.692209	6.637373	21.823574	-9.592317	13.799178	-73.713807	57.767837	54.737974	-24.431782	69.999911	-25.000000	13.052854	-5.013926	-20.472688	-21.338130	-44.975704	1.023028	61.088867	-38.872324	-4.622029	66.428783	25.356219	-2.997867	-24.999997	
5.4300	1.296508	4.049036	12.806562	-0.119393	1.035590	0.028102	3.272970	10.186388	15.458139	6.587594	21.763489	-9.511032	13.973735	-73.628952	57.592822	54.974578	-24.418338	69.999840	-25.000000	13.116850	-5.034529	-20.585765	-21.316627	-44.980152	1.078175	61.240009	-38.732847	-4.610367	66.443314	25.374748	-3.326890	-24.999995	
5.4400	1.247914	4.170729	12.795685	-0.119326	1.035315	0.028143	3.187975	10.129534	15.274715	6.558353	21.714293	-9.447917	14.186186	-73.560337	57.466085	55.252639	-24.431433	69.999713	-25.000000	13.195034	-5.062588	-20.723512	-21.287160	-44.984634	1.145799	61.349222	-38.616531	-4.579605	66.488757	25.349192	-3.552579	-24.999990	
5.4500	1.199306	4.302942	12.778958	-0.119224	1.035070	0.028196	3.108812	10.069877	15.078502	6.537109	21.634470	-9.376684	14.495057	-73.504331	57.399061	55.611945	-24.469132	69.999485	-25.000000	13.319502	-5.092451	-20.942248	-21.252958	-44.989302	1.252596	61.411122	-38.518779	-4.537892	66.584748	25.256708	-3.727091	-24.999983	
5.4600	1.133599	4.453590	12.762441	-0.119083	1.034884	0.028265	3.014591	9.992789	14.840467	6.509272	21.531677	-9.289144	14.874319	-73.454268	57.377621	56.028374	-24.505588	69.999078	-25.000000	13.488755	-5.105652	-21.239001	-21.231009	-44.992936	1.395570	61.447635	-38.425337	-4.516598	66.728030	25.120864	-3.918801	-24.999970	
5.4700	1.055158	4.617691	12.746200	-0.118903	1.034761	0.028346	2.908390	9.905959	14.573840	6.477079	21.418303	-9.191193	15.310862	-73.410009	57.393886	56.497913	-24.540466	69.998348	-25.000000	13.693464	-5.106759	-21.597053	-21.217014	-44.994231	1.567718	61.463595	-38.331685	-4.506144	66.914704	24.945198	-4.117580	-24.999946	
